<mxfile host="app.diagrams.net" modified="2023-05-24T17:15:49.728Z" agent="Mozilla/5.0 (Windows NT 10.0; Win64; x64; rv:109.0) Gecko/20100101 Firefox/113.0" etag="ITN6gEdPi1OhF_McwujM" version="21.3.3" type="google">
  <diagram id="C5RBs43oDa-KdzZeNtuy" name="Page-1">
    <mxGraphModel grid="1" page="1" gridSize="10" guides="1" tooltips="1" connect="1" arrows="1" fold="1" pageScale="1" pageWidth="827" pageHeight="1169" math="0" shadow="0">
      <root>
        <mxCell id="WIyWlLk6GJQsqaUBKTNV-0" />
        <mxCell id="WIyWlLk6GJQsqaUBKTNV-1" parent="WIyWlLk6GJQsqaUBKTNV-0" />
        <mxCell id="C6LJLUUqIyaHrq4dWDmy-4" style="edgeStyle=orthogonalEdgeStyle;rounded=0;orthogonalLoop=1;jettySize=auto;html=1;exitX=1;exitY=0.5;exitDx=0;exitDy=0;" edge="1" parent="WIyWlLk6GJQsqaUBKTNV-1" source="WIyWlLk6GJQsqaUBKTNV-3" target="C6LJLUUqIyaHrq4dWDmy-2">
          <mxGeometry relative="1" as="geometry">
            <mxPoint x="330" y="100" as="targetPoint" />
          </mxGeometry>
        </mxCell>
        <mxCell id="WIyWlLk6GJQsqaUBKTNV-3" value="Αρχικοποίηση των LEDs, TCA, PIN5 του PortF, ADC και PWM" style="rounded=1;whiteSpace=wrap;html=1;fontSize=12;glass=0;strokeWidth=1;shadow=0;" vertex="1" parent="WIyWlLk6GJQsqaUBKTNV-1">
          <mxGeometry x="110" y="80" width="120" height="40" as="geometry" />
        </mxCell>
        <mxCell id="C6LJLUUqIyaHrq4dWDmy-1" style="edgeStyle=orthogonalEdgeStyle;rounded=0;orthogonalLoop=1;jettySize=auto;html=1;entryX=0;entryY=0.5;entryDx=0;entryDy=0;" edge="1" parent="WIyWlLk6GJQsqaUBKTNV-1" source="C6LJLUUqIyaHrq4dWDmy-0" target="WIyWlLk6GJQsqaUBKTNV-3">
          <mxGeometry relative="1" as="geometry" />
        </mxCell>
        <mxCell id="C6LJLUUqIyaHrq4dWDmy-0" value="Start" style="ellipse;whiteSpace=wrap;html=1;" vertex="1" parent="WIyWlLk6GJQsqaUBKTNV-1">
          <mxGeometry x="10" y="65" width="70" height="70" as="geometry" />
        </mxCell>
        <mxCell id="3HB0L9pY-SkI_kOuJJ_1-36" style="edgeStyle=orthogonalEdgeStyle;rounded=0;orthogonalLoop=1;jettySize=auto;html=1;exitX=0;exitY=0;exitDx=0;exitDy=0;" edge="1" parent="WIyWlLk6GJQsqaUBKTNV-1" source="C6LJLUUqIyaHrq4dWDmy-2" target="3HB0L9pY-SkI_kOuJJ_1-35">
          <mxGeometry relative="1" as="geometry" />
        </mxCell>
        <mxCell id="3HB0L9pY-SkI_kOuJJ_1-40" style="edgeStyle=orthogonalEdgeStyle;rounded=0;orthogonalLoop=1;jettySize=auto;html=1;exitX=1;exitY=1;exitDx=0;exitDy=0;" edge="1" parent="WIyWlLk6GJQsqaUBKTNV-1" source="C6LJLUUqIyaHrq4dWDmy-2">
          <mxGeometry relative="1" as="geometry">
            <mxPoint x="430" y="67.5" as="targetPoint" />
          </mxGeometry>
        </mxCell>
        <mxCell id="3HB0L9pY-SkI_kOuJJ_1-43" style="edgeStyle=orthogonalEdgeStyle;rounded=0;orthogonalLoop=1;jettySize=auto;html=1;exitX=0;exitY=1;exitDx=0;exitDy=0;" edge="1" parent="WIyWlLk6GJQsqaUBKTNV-1" source="C6LJLUUqIyaHrq4dWDmy-2" target="3HB0L9pY-SkI_kOuJJ_1-42">
          <mxGeometry relative="1" as="geometry">
            <Array as="points">
              <mxPoint x="290" y="170" />
            </Array>
          </mxGeometry>
        </mxCell>
        <mxCell id="C6LJLUUqIyaHrq4dWDmy-2" value="while(1)" style="rhombus;whiteSpace=wrap;html=1;shadow=0;fontFamily=Helvetica;fontSize=12;align=center;strokeWidth=1;spacing=6;spacingTop=-4;" vertex="1" parent="WIyWlLk6GJQsqaUBKTNV-1">
          <mxGeometry x="270" y="62.5" width="80" height="75" as="geometry" />
        </mxCell>
        <mxCell id="hBA6Nm5DQLy_rChBdWAM-9" value="" style="endArrow=classic;html=1;rounded=0;" edge="1" parent="WIyWlLk6GJQsqaUBKTNV-1">
          <mxGeometry width="50" height="50" relative="1" as="geometry">
            <mxPoint x="350" y="99.5" as="sourcePoint" />
            <mxPoint x="310" y="60" as="targetPoint" />
            <Array as="points">
              <mxPoint x="360" y="100" />
              <mxPoint x="360" y="40" />
              <mxPoint x="310" y="40" />
            </Array>
          </mxGeometry>
        </mxCell>
        <mxCell id="hBA6Nm5DQLy_rChBdWAM-12" value="" style="endArrow=classic;html=1;rounded=0;dashed=1;" edge="1" parent="WIyWlLk6GJQsqaUBKTNV-1">
          <mxGeometry width="50" height="50" relative="1" as="geometry">
            <mxPoint x="310" y="137.5" as="sourcePoint" />
            <mxPoint x="390" y="160" as="targetPoint" />
            <Array as="points">
              <mxPoint x="310" y="160" />
            </Array>
          </mxGeometry>
        </mxCell>
        <mxCell id="hBA6Nm5DQLy_rChBdWAM-17" style="edgeStyle=orthogonalEdgeStyle;rounded=0;orthogonalLoop=1;jettySize=auto;html=1;strokeColor=#FF0000;" edge="1" parent="WIyWlLk6GJQsqaUBKTNV-1" source="hBA6Nm5DQLy_rChBdWAM-15">
          <mxGeometry relative="1" as="geometry">
            <mxPoint x="700" y="160" as="targetPoint" />
            <Array as="points">
              <mxPoint x="660" y="160" />
              <mxPoint x="660" y="160" />
            </Array>
          </mxGeometry>
        </mxCell>
        <mxCell id="hBA6Nm5DQLy_rChBdWAM-15" value="&lt;div&gt;Ενεργοποίηση PIN5 PORTF&lt;br&gt;&lt;/div&gt;&lt;div&gt;(πάτημα διακόπτη)&lt;br&gt;&lt;/div&gt;" style="shape=parallelogram;perimeter=parallelogramPerimeter;whiteSpace=wrap;html=1;fixedSize=1;" vertex="1" parent="WIyWlLk6GJQsqaUBKTNV-1">
          <mxGeometry x="380" y="130" width="140" height="60" as="geometry" />
        </mxCell>
        <mxCell id="hBA6Nm5DQLy_rChBdWAM-18" value="ISR&amp;nbsp; PORTF_PORT interrupt" style="text;html=1;align=center;verticalAlign=middle;resizable=0;points=[];autosize=1;strokeColor=none;fillColor=none;" vertex="1" parent="WIyWlLk6GJQsqaUBKTNV-1">
          <mxGeometry x="520" y="130" width="180" height="30" as="geometry" />
        </mxCell>
        <mxCell id="3HB0L9pY-SkI_kOuJJ_1-5" value="" style="edgeStyle=orthogonalEdgeStyle;rounded=0;orthogonalLoop=1;jettySize=auto;html=1;" edge="1" parent="WIyWlLk6GJQsqaUBKTNV-1" source="3HB0L9pY-SkI_kOuJJ_1-1" target="3HB0L9pY-SkI_kOuJJ_1-4">
          <mxGeometry relative="1" as="geometry" />
        </mxCell>
        <mxCell id="3HB0L9pY-SkI_kOuJJ_1-1" value="count++" style="rounded=1;whiteSpace=wrap;html=1;fontSize=12;glass=0;strokeWidth=1;shadow=0;" vertex="1" parent="WIyWlLk6GJQsqaUBKTNV-1">
          <mxGeometry x="700" y="140" width="120" height="40" as="geometry" />
        </mxCell>
        <mxCell id="3HB0L9pY-SkI_kOuJJ_1-7" style="edgeStyle=orthogonalEdgeStyle;rounded=0;orthogonalLoop=1;jettySize=auto;html=1;" edge="1" parent="WIyWlLk6GJQsqaUBKTNV-1" source="3HB0L9pY-SkI_kOuJJ_1-4">
          <mxGeometry relative="1" as="geometry">
            <mxPoint x="670" y="247.5" as="targetPoint" />
          </mxGeometry>
        </mxCell>
        <mxCell id="3HB0L9pY-SkI_kOuJJ_1-10" value="" style="edgeStyle=orthogonalEdgeStyle;rounded=0;orthogonalLoop=1;jettySize=auto;html=1;" edge="1" parent="WIyWlLk6GJQsqaUBKTNV-1" source="3HB0L9pY-SkI_kOuJJ_1-4" target="3HB0L9pY-SkI_kOuJJ_1-9">
          <mxGeometry relative="1" as="geometry" />
        </mxCell>
        <mxCell id="3HB0L9pY-SkI_kOuJJ_1-4" value="count==1?" style="rhombus;whiteSpace=wrap;html=1;shadow=0;fontFamily=Helvetica;fontSize=12;align=center;strokeWidth=1;spacing=6;spacingTop=-4;" vertex="1" parent="WIyWlLk6GJQsqaUBKTNV-1">
          <mxGeometry x="720" y="210" width="80" height="75" as="geometry" />
        </mxCell>
        <mxCell id="3HB0L9pY-SkI_kOuJJ_1-8" value="yes" style="text;html=1;align=center;verticalAlign=middle;resizable=0;points=[];autosize=1;strokeColor=none;fillColor=none;" vertex="1" parent="WIyWlLk6GJQsqaUBKTNV-1">
          <mxGeometry x="680" y="220" width="40" height="30" as="geometry" />
        </mxCell>
        <mxCell id="3HB0L9pY-SkI_kOuJJ_1-12" value="" style="edgeStyle=orthogonalEdgeStyle;rounded=0;orthogonalLoop=1;jettySize=auto;html=1;" edge="1" parent="WIyWlLk6GJQsqaUBKTNV-1" source="3HB0L9pY-SkI_kOuJJ_1-9" target="3HB0L9pY-SkI_kOuJJ_1-11">
          <mxGeometry relative="1" as="geometry" />
        </mxCell>
        <mxCell id="3HB0L9pY-SkI_kOuJJ_1-20" style="edgeStyle=orthogonalEdgeStyle;rounded=0;orthogonalLoop=1;jettySize=auto;html=1;" edge="1" parent="WIyWlLk6GJQsqaUBKTNV-1" source="3HB0L9pY-SkI_kOuJJ_1-9">
          <mxGeometry relative="1" as="geometry">
            <mxPoint x="668" y="367.5" as="targetPoint" />
          </mxGeometry>
        </mxCell>
        <mxCell id="3HB0L9pY-SkI_kOuJJ_1-9" value="count==2?" style="rhombus;whiteSpace=wrap;html=1;shadow=0;fontFamily=Helvetica;fontSize=12;align=center;strokeWidth=1;spacing=6;spacingTop=-4;" vertex="1" parent="WIyWlLk6GJQsqaUBKTNV-1">
          <mxGeometry x="720" y="330" width="80" height="75" as="geometry" />
        </mxCell>
        <mxCell id="3HB0L9pY-SkI_kOuJJ_1-23" style="edgeStyle=orthogonalEdgeStyle;rounded=0;orthogonalLoop=1;jettySize=auto;html=1;entryX=1;entryY=0.5;entryDx=0;entryDy=0;" edge="1" parent="WIyWlLk6GJQsqaUBKTNV-1" source="3HB0L9pY-SkI_kOuJJ_1-11" target="3HB0L9pY-SkI_kOuJJ_1-24">
          <mxGeometry relative="1" as="geometry">
            <mxPoint x="620" y="507.5" as="targetPoint" />
          </mxGeometry>
        </mxCell>
        <mxCell id="3HB0L9pY-SkI_kOuJJ_1-31" style="edgeStyle=orthogonalEdgeStyle;rounded=0;orthogonalLoop=1;jettySize=auto;html=1;" edge="1" parent="WIyWlLk6GJQsqaUBKTNV-1" source="3HB0L9pY-SkI_kOuJJ_1-11">
          <mxGeometry relative="1" as="geometry">
            <mxPoint x="710" y="563" as="targetPoint" />
            <Array as="points">
              <mxPoint x="760" y="563" />
              <mxPoint x="731" y="563" />
            </Array>
          </mxGeometry>
        </mxCell>
        <mxCell id="3HB0L9pY-SkI_kOuJJ_1-11" value="count==3?" style="rhombus;whiteSpace=wrap;html=1;shadow=0;fontFamily=Helvetica;fontSize=12;align=center;strokeWidth=1;spacing=6;spacingTop=-4;" vertex="1" parent="WIyWlLk6GJQsqaUBKTNV-1">
          <mxGeometry x="720" y="440" width="80" height="75" as="geometry" />
        </mxCell>
        <mxCell id="3HB0L9pY-SkI_kOuJJ_1-15" style="edgeStyle=orthogonalEdgeStyle;rounded=0;orthogonalLoop=1;jettySize=auto;html=1;" edge="1" parent="WIyWlLk6GJQsqaUBKTNV-1" source="3HB0L9pY-SkI_kOuJJ_1-13" target="3HB0L9pY-SkI_kOuJJ_1-14">
          <mxGeometry relative="1" as="geometry" />
        </mxCell>
        <mxCell id="3HB0L9pY-SkI_kOuJJ_1-13" value="ADC freeruning mode" style="rounded=1;whiteSpace=wrap;html=1;fontSize=12;glass=0;strokeWidth=1;shadow=0;" vertex="1" parent="WIyWlLk6GJQsqaUBKTNV-1">
          <mxGeometry x="548" y="227.5" width="120" height="40" as="geometry" />
        </mxCell>
        <mxCell id="3HB0L9pY-SkI_kOuJJ_1-27" value="" style="edgeStyle=orthogonalEdgeStyle;rounded=0;orthogonalLoop=1;jettySize=auto;html=1;" edge="1" parent="WIyWlLk6GJQsqaUBKTNV-1" source="3HB0L9pY-SkI_kOuJJ_1-14" target="3HB0L9pY-SkI_kOuJJ_1-26">
          <mxGeometry relative="1" as="geometry" />
        </mxCell>
        <mxCell id="3HB0L9pY-SkI_kOuJJ_1-14" value="&lt;div&gt;&lt;br&gt;&lt;/div&gt;&lt;div&gt;BaseTimerPeriod: 4&lt;br&gt;&lt;/div&gt;&lt;div&gt;BladesTimerPeriod: 2&lt;br&gt;&lt;/div&gt;&lt;div&gt;&lt;br&gt;&lt;/div&gt;" style="rounded=1;whiteSpace=wrap;html=1;fontSize=12;glass=0;strokeWidth=1;shadow=0;" vertex="1" parent="WIyWlLk6GJQsqaUBKTNV-1">
          <mxGeometry x="350" y="227.5" width="140" height="40" as="geometry" />
        </mxCell>
        <mxCell id="3HB0L9pY-SkI_kOuJJ_1-16" value="BaseDb=40% &amp;amp; BladesDb: 50%" style="text;html=1;align=center;verticalAlign=middle;resizable=0;points=[];autosize=1;strokeColor=none;fillColor=none;" vertex="1" parent="WIyWlLk6GJQsqaUBKTNV-1">
          <mxGeometry x="330" y="200" width="190" height="30" as="geometry" />
        </mxCell>
        <mxCell id="3HB0L9pY-SkI_kOuJJ_1-17" value="&lt;div&gt;baserise=0&lt;/div&gt;&lt;div&gt;bladerise=0&lt;br&gt;&lt;/div&gt;" style="rounded=1;whiteSpace=wrap;html=1;fontSize=12;glass=0;strokeWidth=1;shadow=0;" vertex="1" parent="WIyWlLk6GJQsqaUBKTNV-1">
          <mxGeometry x="10" y="227.5" width="140" height="40" as="geometry" />
        </mxCell>
        <mxCell id="3HB0L9pY-SkI_kOuJJ_1-21" value="BladesPeriod*2" style="rounded=1;whiteSpace=wrap;html=1;fontSize=12;glass=0;strokeWidth=1;shadow=0;" vertex="1" parent="WIyWlLk6GJQsqaUBKTNV-1">
          <mxGeometry x="528" y="347.5" width="140" height="40" as="geometry" />
        </mxCell>
        <mxCell id="3HB0L9pY-SkI_kOuJJ_1-47" value="" style="edgeStyle=orthogonalEdgeStyle;rounded=0;orthogonalLoop=1;jettySize=auto;html=1;" edge="1" parent="WIyWlLk6GJQsqaUBKTNV-1" source="3HB0L9pY-SkI_kOuJJ_1-24" target="3HB0L9pY-SkI_kOuJJ_1-46">
          <mxGeometry relative="1" as="geometry" />
        </mxCell>
        <mxCell id="3HB0L9pY-SkI_kOuJJ_1-24" value="&lt;div&gt;Stop Movement (turn off)&lt;/div&gt;(TCA, ADC disable &amp;amp; leds off)" style="rounded=1;whiteSpace=wrap;html=1;fontSize=12;glass=0;strokeWidth=1;shadow=0;" vertex="1" parent="WIyWlLk6GJQsqaUBKTNV-1">
          <mxGeometry x="528" y="453.75" width="140" height="47.5" as="geometry" />
        </mxCell>
        <mxCell id="3HB0L9pY-SkI_kOuJJ_1-28" value="" style="edgeStyle=orthogonalEdgeStyle;rounded=0;orthogonalLoop=1;jettySize=auto;html=1;" edge="1" parent="WIyWlLk6GJQsqaUBKTNV-1" source="3HB0L9pY-SkI_kOuJJ_1-26" target="3HB0L9pY-SkI_kOuJJ_1-17">
          <mxGeometry relative="1" as="geometry" />
        </mxCell>
        <mxCell id="3HB0L9pY-SkI_kOuJJ_1-26" value="Start Blade and Base movement (TCA0.SPLIT.CTRLA enable)" style="rounded=1;whiteSpace=wrap;html=1;fontSize=12;glass=0;strokeWidth=1;shadow=0;" vertex="1" parent="WIyWlLk6GJQsqaUBKTNV-1">
          <mxGeometry x="180" y="213.75" width="140" height="67.5" as="geometry" />
        </mxCell>
        <mxCell id="3HB0L9pY-SkI_kOuJJ_1-29" value="&lt;div&gt;count=0&lt;/div&gt;&lt;div&gt;period=20&lt;/div&gt;&lt;div&gt;bladerise=0&lt;/div&gt;&lt;div&gt;baserise=0&lt;br&gt;&lt;/div&gt;" style="text;html=1;align=center;verticalAlign=middle;resizable=0;points=[];autosize=1;strokeColor=none;fillColor=none;" vertex="1" parent="WIyWlLk6GJQsqaUBKTNV-1">
          <mxGeometry x="5" y="-5" width="80" height="70" as="geometry" />
        </mxCell>
        <mxCell id="3HB0L9pY-SkI_kOuJJ_1-34" style="edgeStyle=orthogonalEdgeStyle;rounded=0;orthogonalLoop=1;jettySize=auto;html=1;" edge="1" parent="WIyWlLk6GJQsqaUBKTNV-1" source="3HB0L9pY-SkI_kOuJJ_1-32" target="3HB0L9pY-SkI_kOuJJ_1-33">
          <mxGeometry relative="1" as="geometry" />
        </mxCell>
        <mxCell id="3HB0L9pY-SkI_kOuJJ_1-32" value="count=1" style="rounded=1;whiteSpace=wrap;html=1;fontSize=12;glass=0;strokeWidth=1;shadow=0;" vertex="1" parent="WIyWlLk6GJQsqaUBKTNV-1">
          <mxGeometry x="570" y="537" width="140" height="47.5" as="geometry" />
        </mxCell>
        <mxCell id="3HB0L9pY-SkI_kOuJJ_1-33" value="Base and Blades active" style="rounded=1;whiteSpace=wrap;html=1;fontSize=12;glass=0;strokeWidth=1;shadow=0;" vertex="1" parent="WIyWlLk6GJQsqaUBKTNV-1">
          <mxGeometry x="400" y="537" width="140" height="47.5" as="geometry" />
        </mxCell>
        <mxCell id="3HB0L9pY-SkI_kOuJJ_1-38" style="edgeStyle=orthogonalEdgeStyle;rounded=0;orthogonalLoop=1;jettySize=auto;html=1;strokeColor=#FF3333;" edge="1" parent="WIyWlLk6GJQsqaUBKTNV-1" source="3HB0L9pY-SkI_kOuJJ_1-35" target="3HB0L9pY-SkI_kOuJJ_1-37">
          <mxGeometry relative="1" as="geometry" />
        </mxCell>
        <mxCell id="3HB0L9pY-SkI_kOuJJ_1-35" value="πέρασε μία περίοδος period?&lt;br&gt;&lt;div&gt;(ένας παλμός&lt;/div&gt;&lt;div&gt;για την Blade κίνηση)&lt;/div&gt;" style="rhombus;whiteSpace=wrap;html=1;shadow=0;fontFamily=Helvetica;fontSize=12;align=center;strokeWidth=1;spacing=6;spacingTop=-4;" vertex="1" parent="WIyWlLk6GJQsqaUBKTNV-1">
          <mxGeometry x="240" y="-110" width="100" height="105" as="geometry" />
        </mxCell>
        <mxCell id="3HB0L9pY-SkI_kOuJJ_1-57" style="edgeStyle=orthogonalEdgeStyle;rounded=0;orthogonalLoop=1;jettySize=auto;html=1;" edge="1" parent="WIyWlLk6GJQsqaUBKTNV-1" source="3HB0L9pY-SkI_kOuJJ_1-37">
          <mxGeometry relative="1" as="geometry">
            <mxPoint x="668" y="-57.5" as="targetPoint" />
          </mxGeometry>
        </mxCell>
        <mxCell id="3HB0L9pY-SkI_kOuJJ_1-97" style="edgeStyle=orthogonalEdgeStyle;rounded=0;orthogonalLoop=1;jettySize=auto;html=1;entryX=0;entryY=0.5;entryDx=0;entryDy=0;" edge="1" parent="WIyWlLk6GJQsqaUBKTNV-1" source="3HB0L9pY-SkI_kOuJJ_1-37" target="3HB0L9pY-SkI_kOuJJ_1-96">
          <mxGeometry relative="1" as="geometry">
            <Array as="points">
              <mxPoint x="580" y="-115" />
            </Array>
          </mxGeometry>
        </mxCell>
        <mxCell id="3HB0L9pY-SkI_kOuJJ_1-37" value="bladerise==0" style="rhombus;whiteSpace=wrap;html=1;shadow=0;fontFamily=Helvetica;fontSize=12;align=center;strokeWidth=1;spacing=6;spacingTop=-4;" vertex="1" parent="WIyWlLk6GJQsqaUBKTNV-1">
          <mxGeometry x="540" y="-95" width="80" height="75" as="geometry" />
        </mxCell>
        <mxCell id="3HB0L9pY-SkI_kOuJJ_1-53" style="edgeStyle=orthogonalEdgeStyle;rounded=0;orthogonalLoop=1;jettySize=auto;html=1;strokeColor=#FF0000;" edge="1" parent="WIyWlLk6GJQsqaUBKTNV-1" source="3HB0L9pY-SkI_kOuJJ_1-41">
          <mxGeometry relative="1" as="geometry">
            <mxPoint x="690" y="67.5" as="targetPoint" />
          </mxGeometry>
        </mxCell>
        <mxCell id="3HB0L9pY-SkI_kOuJJ_1-41" value="πέρασε μία περίοδος 4?&lt;br&gt;&lt;div&gt;(ένας παλμός&lt;/div&gt;&lt;div&gt;για την Base κίνηση)&lt;/div&gt;" style="rhombus;whiteSpace=wrap;html=1;shadow=0;fontFamily=Helvetica;fontSize=12;align=center;strokeWidth=1;spacing=6;spacingTop=-4;" vertex="1" parent="WIyWlLk6GJQsqaUBKTNV-1">
          <mxGeometry x="428" y="15" width="100" height="105" as="geometry" />
        </mxCell>
        <mxCell id="3HB0L9pY-SkI_kOuJJ_1-59" value="" style="edgeStyle=orthogonalEdgeStyle;rounded=0;orthogonalLoop=1;jettySize=auto;html=1;strokeColor=#FF0000;entryX=0.5;entryY=0;entryDx=0;entryDy=0;" edge="1" parent="WIyWlLk6GJQsqaUBKTNV-1" source="3HB0L9pY-SkI_kOuJJ_1-42" target="3HB0L9pY-SkI_kOuJJ_1-63">
          <mxGeometry relative="1" as="geometry">
            <mxPoint x="-300" y="173" as="targetPoint" />
            <Array as="points">
              <mxPoint x="-209" y="173" />
              <mxPoint x="-209" y="174" />
              <mxPoint x="-282" y="174" />
            </Array>
          </mxGeometry>
        </mxCell>
        <mxCell id="3HB0L9pY-SkI_kOuJJ_1-42" value="ADC result&amp;lt;10?" style="rhombus;whiteSpace=wrap;html=1;shadow=0;fontFamily=Helvetica;fontSize=12;align=center;strokeWidth=1;spacing=6;spacingTop=-4;" vertex="1" parent="WIyWlLk6GJQsqaUBKTNV-1">
          <mxGeometry x="-120" y="135" width="80" height="75" as="geometry" />
        </mxCell>
        <mxCell id="3HB0L9pY-SkI_kOuJJ_1-46" value="End" style="ellipse;whiteSpace=wrap;html=1;" vertex="1" parent="WIyWlLk6GJQsqaUBKTNV-1">
          <mxGeometry x="420" y="442.5" width="70" height="70" as="geometry" />
        </mxCell>
        <mxCell id="3HB0L9pY-SkI_kOuJJ_1-48" value="ναι" style="text;html=1;align=center;verticalAlign=middle;resizable=0;points=[];autosize=1;strokeColor=none;fillColor=none;" vertex="1" parent="WIyWlLk6GJQsqaUBKTNV-1">
          <mxGeometry x="394" y="-60" width="40" height="30" as="geometry" />
        </mxCell>
        <mxCell id="3HB0L9pY-SkI_kOuJJ_1-50" value="ISR TCA0_HUNF_vect interrupt" style="text;html=1;align=center;verticalAlign=middle;resizable=0;points=[];autosize=1;strokeColor=none;fillColor=none;" vertex="1" parent="WIyWlLk6GJQsqaUBKTNV-1">
          <mxGeometry x="515" y="32.5" width="190" height="30" as="geometry" />
        </mxCell>
        <mxCell id="3HB0L9pY-SkI_kOuJJ_1-51" value="ISR TCA0_LUNF_vect interrupt" style="text;html=1;align=center;verticalAlign=middle;resizable=0;points=[];autosize=1;strokeColor=none;fillColor=none;" vertex="1" parent="WIyWlLk6GJQsqaUBKTNV-1">
          <mxGeometry x="350" y="-90" width="190" height="30" as="geometry" />
        </mxCell>
        <mxCell id="3HB0L9pY-SkI_kOuJJ_1-54" value="baserise==0" style="rhombus;whiteSpace=wrap;html=1;shadow=0;fontFamily=Helvetica;fontSize=12;align=center;strokeWidth=1;spacing=6;spacingTop=-4;" vertex="1" parent="WIyWlLk6GJQsqaUBKTNV-1">
          <mxGeometry x="690" y="30" width="80" height="75" as="geometry" />
        </mxCell>
        <mxCell id="3HB0L9pY-SkI_kOuJJ_1-55" value="ναι" style="text;html=1;align=center;verticalAlign=middle;resizable=0;points=[];autosize=1;strokeColor=none;fillColor=none;" vertex="1" parent="WIyWlLk6GJQsqaUBKTNV-1">
          <mxGeometry x="578" y="65" width="40" height="30" as="geometry" />
        </mxCell>
        <mxCell id="3HB0L9pY-SkI_kOuJJ_1-60" value="yes" style="text;html=1;align=center;verticalAlign=middle;resizable=0;points=[];autosize=1;strokeColor=none;fillColor=none;" vertex="1" parent="WIyWlLk6GJQsqaUBKTNV-1">
          <mxGeometry x="-200" y="170" width="40" height="30" as="geometry" />
        </mxCell>
        <mxCell id="3HB0L9pY-SkI_kOuJJ_1-61" value="ISR ADC_WCOMP interrupt" style="text;html=1;align=center;verticalAlign=middle;resizable=0;points=[];autosize=1;strokeColor=none;fillColor=none;" vertex="1" parent="WIyWlLk6GJQsqaUBKTNV-1">
          <mxGeometry x="-280" y="145" width="170" height="30" as="geometry" />
        </mxCell>
        <mxCell id="3HB0L9pY-SkI_kOuJJ_1-70" style="edgeStyle=orthogonalEdgeStyle;rounded=0;orthogonalLoop=1;jettySize=auto;html=1;entryX=0.5;entryY=0;entryDx=0;entryDy=0;" edge="1" parent="WIyWlLk6GJQsqaUBKTNV-1" source="3HB0L9pY-SkI_kOuJJ_1-63" target="3HB0L9pY-SkI_kOuJJ_1-75">
          <mxGeometry relative="1" as="geometry">
            <mxPoint x="-282" y="286" as="targetPoint" />
          </mxGeometry>
        </mxCell>
        <mxCell id="3HB0L9pY-SkI_kOuJJ_1-63" value="&lt;div&gt;Stop Movement (turn off)&lt;/div&gt;(TCA, ADC disable &amp;amp; leds off)" style="rounded=1;whiteSpace=wrap;html=1;fontSize=12;glass=0;strokeWidth=1;shadow=0;" vertex="1" parent="WIyWlLk6GJQsqaUBKTNV-1">
          <mxGeometry x="-352" y="211.25" width="140" height="47.5" as="geometry" />
        </mxCell>
        <mxCell id="3HB0L9pY-SkI_kOuJJ_1-65" value="End" style="ellipse;whiteSpace=wrap;html=1;" vertex="1" parent="WIyWlLk6GJQsqaUBKTNV-1">
          <mxGeometry x="80" y="435" width="70" height="70" as="geometry" />
        </mxCell>
        <mxCell id="3HB0L9pY-SkI_kOuJJ_1-74" value="" style="edgeStyle=orthogonalEdgeStyle;rounded=0;orthogonalLoop=1;jettySize=auto;html=1;" edge="1" parent="WIyWlLk6GJQsqaUBKTNV-1" source="3HB0L9pY-SkI_kOuJJ_1-71" target="3HB0L9pY-SkI_kOuJJ_1-73">
          <mxGeometry relative="1" as="geometry" />
        </mxCell>
        <mxCell id="3HB0L9pY-SkI_kOuJJ_1-85" style="edgeStyle=orthogonalEdgeStyle;rounded=0;orthogonalLoop=1;jettySize=auto;html=1;entryX=0;entryY=0.5;entryDx=0;entryDy=0;" edge="1" parent="WIyWlLk6GJQsqaUBKTNV-1" source="3HB0L9pY-SkI_kOuJJ_1-71" target="3HB0L9pY-SkI_kOuJJ_1-86">
          <mxGeometry relative="1" as="geometry">
            <mxPoint x="-260" y="483" as="targetPoint" />
            <Array as="points">
              <mxPoint x="-282" y="470" />
            </Array>
          </mxGeometry>
        </mxCell>
        <mxCell id="3HB0L9pY-SkI_kOuJJ_1-71" value="period&amp;gt;=2?" style="rhombus;whiteSpace=wrap;html=1;shadow=0;fontFamily=Helvetica;fontSize=12;align=center;strokeWidth=1;spacing=6;spacingTop=-4;" vertex="1" parent="WIyWlLk6GJQsqaUBKTNV-1">
          <mxGeometry x="-322" y="360" width="80" height="75" as="geometry" />
        </mxCell>
        <mxCell id="3HB0L9pY-SkI_kOuJJ_1-87" style="edgeStyle=orthogonalEdgeStyle;rounded=0;orthogonalLoop=1;jettySize=auto;html=1;entryX=0;entryY=0.25;entryDx=0;entryDy=0;" edge="1" parent="WIyWlLk6GJQsqaUBKTNV-1" source="3HB0L9pY-SkI_kOuJJ_1-73" target="3HB0L9pY-SkI_kOuJJ_1-86">
          <mxGeometry relative="1" as="geometry" />
        </mxCell>
        <mxCell id="3HB0L9pY-SkI_kOuJJ_1-73" value="&lt;div&gt;period/=2&lt;/div&gt;" style="rounded=1;whiteSpace=wrap;html=1;fontSize=12;glass=0;strokeWidth=1;shadow=0;" vertex="1" parent="WIyWlLk6GJQsqaUBKTNV-1">
          <mxGeometry x="-190" y="377.5" width="140" height="40" as="geometry" />
        </mxCell>
        <mxCell id="3HB0L9pY-SkI_kOuJJ_1-76" value="" style="edgeStyle=orthogonalEdgeStyle;rounded=0;orthogonalLoop=1;jettySize=auto;html=1;" edge="1" parent="WIyWlLk6GJQsqaUBKTNV-1" source="3HB0L9pY-SkI_kOuJJ_1-75" target="3HB0L9pY-SkI_kOuJJ_1-71">
          <mxGeometry relative="1" as="geometry" />
        </mxCell>
        <mxCell id="3HB0L9pY-SkI_kOuJJ_1-75" value="Danger Led ON" style="rounded=1;whiteSpace=wrap;html=1;fontSize=12;glass=0;strokeWidth=1;shadow=0;" vertex="1" parent="WIyWlLk6GJQsqaUBKTNV-1">
          <mxGeometry x="-352" y="285" width="140" height="45" as="geometry" />
        </mxCell>
        <mxCell id="3HB0L9pY-SkI_kOuJJ_1-81" value="yes" style="text;html=1;align=center;verticalAlign=middle;resizable=0;points=[];autosize=1;strokeColor=none;fillColor=none;" vertex="1" parent="WIyWlLk6GJQsqaUBKTNV-1">
          <mxGeometry x="-240" y="368" width="40" height="30" as="geometry" />
        </mxCell>
        <mxCell id="3HB0L9pY-SkI_kOuJJ_1-91" value="" style="edgeStyle=orthogonalEdgeStyle;rounded=0;orthogonalLoop=1;jettySize=auto;html=1;" edge="1" parent="WIyWlLk6GJQsqaUBKTNV-1" source="3HB0L9pY-SkI_kOuJJ_1-86" target="3HB0L9pY-SkI_kOuJJ_1-65">
          <mxGeometry relative="1" as="geometry" />
        </mxCell>
        <mxCell id="3HB0L9pY-SkI_kOuJJ_1-86" value="count=0" style="rounded=1;whiteSpace=wrap;html=1;fontSize=12;glass=0;strokeWidth=1;shadow=0;" vertex="1" parent="WIyWlLk6GJQsqaUBKTNV-1">
          <mxGeometry x="-100" y="450" width="140" height="40" as="geometry" />
        </mxCell>
        <mxCell id="3HB0L9pY-SkI_kOuJJ_1-88" value="no" style="text;html=1;align=center;verticalAlign=middle;resizable=0;points=[];autosize=1;strokeColor=none;fillColor=none;" vertex="1" parent="WIyWlLk6GJQsqaUBKTNV-1">
          <mxGeometry x="-240" y="438" width="40" height="30" as="geometry" />
        </mxCell>
        <mxCell id="3HB0L9pY-SkI_kOuJJ_1-92" value="Blade LED on" style="rounded=1;whiteSpace=wrap;html=1;fontSize=12;glass=0;strokeWidth=1;shadow=0;" vertex="1" parent="WIyWlLk6GJQsqaUBKTNV-1">
          <mxGeometry x="670" y="-77.5" width="120" height="40" as="geometry" />
        </mxCell>
        <mxCell id="3HB0L9pY-SkI_kOuJJ_1-93" value="yes" style="text;html=1;align=center;verticalAlign=middle;resizable=0;points=[];autosize=1;strokeColor=none;fillColor=none;" vertex="1" parent="WIyWlLk6GJQsqaUBKTNV-1">
          <mxGeometry x="620" y="-90" width="40" height="30" as="geometry" />
        </mxCell>
        <mxCell id="3HB0L9pY-SkI_kOuJJ_1-96" value="Blade LED off" style="rounded=1;whiteSpace=wrap;html=1;fontSize=12;glass=0;strokeWidth=1;shadow=0;" vertex="1" parent="WIyWlLk6GJQsqaUBKTNV-1">
          <mxGeometry x="668" y="-135" width="120" height="40" as="geometry" />
        </mxCell>
        <mxCell id="3HB0L9pY-SkI_kOuJJ_1-98" value="no (bladerise==1)" style="text;html=1;align=center;verticalAlign=middle;resizable=0;points=[];autosize=1;strokeColor=none;fillColor=none;" vertex="1" parent="WIyWlLk6GJQsqaUBKTNV-1">
          <mxGeometry x="550" y="-142" width="120" height="30" as="geometry" />
        </mxCell>
        <mxCell id="3HB0L9pY-SkI_kOuJJ_1-101" style="edgeStyle=orthogonalEdgeStyle;rounded=0;orthogonalLoop=1;jettySize=auto;html=1;" edge="1" parent="WIyWlLk6GJQsqaUBKTNV-1">
          <mxGeometry relative="1" as="geometry">
            <mxPoint x="770" y="68" as="sourcePoint" />
            <mxPoint x="818" y="67.5" as="targetPoint" />
          </mxGeometry>
        </mxCell>
        <mxCell id="3HB0L9pY-SkI_kOuJJ_1-102" value="no (baserise==1)" style="text;html=1;align=center;verticalAlign=middle;resizable=0;points=[];autosize=1;strokeColor=none;fillColor=none;" vertex="1" parent="WIyWlLk6GJQsqaUBKTNV-1">
          <mxGeometry x="705" y="-20" width="110" height="30" as="geometry" />
        </mxCell>
        <mxCell id="3HB0L9pY-SkI_kOuJJ_1-103" style="edgeStyle=orthogonalEdgeStyle;rounded=0;orthogonalLoop=1;jettySize=auto;html=1;entryX=0;entryY=0.5;entryDx=0;entryDy=0;exitX=0.5;exitY=0;exitDx=0;exitDy=0;" edge="1" parent="WIyWlLk6GJQsqaUBKTNV-1" source="3HB0L9pY-SkI_kOuJJ_1-54" target="3HB0L9pY-SkI_kOuJJ_1-105">
          <mxGeometry relative="1" as="geometry">
            <mxPoint x="730" y="27" as="sourcePoint" />
            <Array as="points">
              <mxPoint x="730" y="7" />
            </Array>
          </mxGeometry>
        </mxCell>
        <mxCell id="3HB0L9pY-SkI_kOuJJ_1-104" value="yes" style="text;html=1;align=center;verticalAlign=middle;resizable=0;points=[];autosize=1;strokeColor=none;fillColor=none;" vertex="1" parent="WIyWlLk6GJQsqaUBKTNV-1">
          <mxGeometry x="770" y="32" width="40" height="30" as="geometry" />
        </mxCell>
        <mxCell id="3HB0L9pY-SkI_kOuJJ_1-105" value="Base LED off" style="rounded=1;whiteSpace=wrap;html=1;fontSize=12;glass=0;strokeWidth=1;shadow=0;" vertex="1" parent="WIyWlLk6GJQsqaUBKTNV-1">
          <mxGeometry x="818" y="-13" width="120" height="40" as="geometry" />
        </mxCell>
        <mxCell id="3HB0L9pY-SkI_kOuJJ_1-106" value="Base LED on" style="rounded=1;whiteSpace=wrap;html=1;fontSize=12;glass=0;strokeWidth=1;shadow=0;" vertex="1" parent="WIyWlLk6GJQsqaUBKTNV-1">
          <mxGeometry x="820" y="47.5" width="120" height="40" as="geometry" />
        </mxCell>
        <mxCell id="MSkW_wATl2XU4tKtrZLk-1" value="ISR ADC_WCOMP interrupt" style="text;html=1;align=center;verticalAlign=middle;resizable=0;points=[];autosize=1;strokeColor=none;fillColor=none;" vertex="1" parent="WIyWlLk6GJQsqaUBKTNV-1">
          <mxGeometry x="-279" y="145" width="170" height="30" as="geometry" />
        </mxCell>
        <mxCell id="MSkW_wATl2XU4tKtrZLk-2" value="" style="edgeStyle=orthogonalEdgeStyle;rounded=0;orthogonalLoop=1;jettySize=auto;html=1;strokeColor=#FF0000;entryX=0.5;entryY=0;entryDx=0;entryDy=0;" edge="1" parent="WIyWlLk6GJQsqaUBKTNV-1">
          <mxGeometry relative="1" as="geometry">
            <mxPoint x="-281" y="211" as="targetPoint" />
            <Array as="points">
              <mxPoint x="-208" y="173" />
              <mxPoint x="-208" y="174" />
              <mxPoint x="-281" y="174" />
            </Array>
            <mxPoint x="-119" y="173" as="sourcePoint" />
          </mxGeometry>
        </mxCell>
      </root>
    </mxGraphModel>
  </diagram>
</mxfile>
